<svg width="1400" height="700" viewBox="0 0 1400 700" fill="none" xmlns="http://www.w3.org/2000/svg">
  <rect width="1400" height="700" rx="48" fill="#0F281C"/>
  <rect x="50" y="50" width="1300" height="600" rx="38" fill="#123827"/>
  <circle cx="174" cy="128" r="28" fill="#25D366"/>
  <rect x="220" y="103" width="310" height="48" rx="24" fill="#1F5A3F"/>

  <rect x="120" y="214" width="612" height="396" rx="28" fill="#1A4A34"/>
  <rect x="164" y="262" width="392" height="48" rx="24" fill="#2D7D57"/>
  <rect x="164" y="332" width="468" height="34" rx="17" fill="#2A6F4E"/>
  <rect x="164" y="382" width="420" height="34" rx="17" fill="#2A6F4E"/>
  <rect x="164" y="450" width="278" height="72" rx="24" fill="#25D366"/>

  <rect x="778" y="214" width="500" height="396" rx="28" fill="#F4FFF8"/>
  <rect x="830" y="268" width="236" height="30" rx="15" fill="#D7F4E2"/>
  <rect x="830" y="324" width="380" height="24" rx="12" fill="#DCEEE4"/>
  <rect x="830" y="364" width="326" height="24" rx="12" fill="#DCEEE4"/>
  <path d="M836 468C874 522 922 550 980 552C1048 554 1110 502 1164 420" stroke="#25D366" stroke-width="12" stroke-linecap="round"/>
  <circle cx="1164" cy="420" r="20" fill="#25D366"/>
</svg>
