<svg width="1400" height="700" viewBox="0 0 1400 700" fill="none" xmlns="http://www.w3.org/2000/svg">
  <rect width="1400" height="700" rx="48" fill="#F3FFF8"/>
  <rect x="76" y="76" width="1248" height="548" rx="36" fill="white" stroke="#CFEBDD" stroke-width="6"/>

  <rect x="126" y="128" width="1148" height="92" rx="28" fill="#ECFFF2"/>
  <circle cx="184" cy="174" r="18" fill="#25D366"/>
  <rect x="222" y="154" width="302" height="36" rx="18" fill="#D6F2E0"/>

  <rect x="126" y="250" width="550" height="324" rx="28" fill="#F6FFFA"/>
  <rect x="174" y="296" width="250" height="58" rx="20" fill="#DFF3E7"/>
  <rect x="174" y="370" width="324" height="58" rx="20" fill="#25D366" fill-opacity="0.26"/>
  <rect x="174" y="444" width="220" height="58" rx="20" fill="#DFF3E7"/>

  <rect x="714" y="250" width="560" height="324" rx="28" fill="#0F281C"/>
  <rect x="762" y="296" width="462" height="52" rx="18" fill="#123827"/>
  <rect x="762" y="366" width="350" height="34" rx="17" fill="#1D5D40"/>
  <rect x="762" y="418" width="300" height="34" rx="17" fill="#1D5D40"/>
  <rect x="762" y="480" width="210" height="50" rx="22" fill="#25D366"/>
</svg>
