<svg width="1200" height="860" viewBox="0 0 1200 860" fill="none" xmlns="http://www.w3.org/2000/svg">
  <defs>
    <linearGradient id="bg" x1="160" y1="20" x2="970" y2="860" gradientUnits="userSpaceOnUse">
      <stop stop-color="#F2FFF7"/>
      <stop offset="1" stop-color="#D6FFE4"/>
    </linearGradient>
  </defs>
  <rect width="1200" height="860" rx="56" fill="url(#bg)"/>
  <rect x="88" y="82" width="1024" height="694" rx="44" fill="white" stroke="#CFEBDD" stroke-width="6"/>
  <rect x="136" y="140" width="928" height="84" rx="24" fill="#F2FFF7"/>
  <circle cx="186" cy="182" r="14" fill="#25D366"/>
  <rect x="222" y="168" width="244" height="28" rx="14" fill="#D5EEDF"/>
  <rect x="846" y="160" width="170" height="40" rx="20" fill="#25D366"/>

  <rect x="136" y="262" width="460" height="438" rx="30" fill="#ECFFF2"/>
  <rect x="624" y="262" width="440" height="438" rx="30" fill="#F6FFFA"/>

  <rect x="172" y="304" width="300" height="36" rx="18" fill="#25D366" fill-opacity="0.26"/>
  <rect x="172" y="356" width="380" height="32" rx="16" fill="#CDE8D7"/>
  <rect x="172" y="406" width="336" height="32" rx="16" fill="#CDE8D7"/>

  <rect x="660" y="322" width="372" height="300" rx="28" fill="white" stroke="#CDE8D7" stroke-width="4"/>
  <rect x="700" y="360" width="192" height="26" rx="13" fill="#D8F7E3"/>
  <rect x="700" y="402" width="276" height="20" rx="10" fill="#DFEFE5"/>
  <rect x="700" y="436" width="220" height="20" rx="10" fill="#DFEFE5"/>
  <rect x="700" y="486" width="190" height="58" rx="18" fill="#25D366"/>

  <rect x="460" y="560" width="256" height="120" rx="30" fill="white" stroke="#CDE8D7" stroke-width="4"/>
  <path d="M500 618C542 652 586 652 628 618" stroke="#11201A" stroke-width="8" stroke-linecap="round"/>
  <circle cx="530" cy="590" r="14" fill="#25D366"/>
  <circle cx="598" cy="590" r="14" fill="#25D366"/>
</svg>
