<svg xmlns="http://www.w3.org/2000/svg" xmlns:xlink="http://www.w3.org/1999/xlink" xmlns:inkscape="http://www.inkscape.org/namespaces/inkscape" version="1.1" width="1024" height="1024" viewBox="0 0 1024 1024">
<defs>
<clipPath id="clip_1">
<path transform="matrix(1,0,0,-1,0,1024)" d="M0 0H1024V1024H0Z"/>
</clipPath>
</defs>
<g clip-path="url(#clip_1)">
<path transform="matrix(1,0,0,-1,0,1024)" d="M496.7638 1024.35H526.5434C672.42 1024.35 759.946 1024.35 818.2966 999.9894 902.4141 969.3731 968.6767 903.1105 999.293 818.993 1023.654 760.6424 1023.654 673.1164 1023.654 527.2398V494.7602C1023.654 348.8836 1023.654 261.3576 999.293 203.007 968.6767 118.8895 902.4141 52.6269 818.2966 22.01063 759.946-2.349976 672.42-2.349976 526.5434-2.349976H496.7638C350.8872-2.349976 263.3612-2.349976 205.0105 22.01063 120.8931 52.6269 54.63047 118.8895 24.01421 203.007-.3464049 261.3576-.3464049 348.8836-.3464049 494.7602V527.2398C-.3464049 673.1164-.3464049 760.6424 24.01421 818.993 54.63047 903.1105 120.8931 969.3731 205.0105 999.9894 263.3612 1024.35 350.8872 1024.35 496.7638 1024.35ZM496.7638 1024.35" fill="#25d366"/>
<path transform="matrix(1,0,0,-1,0,1024)" d="M511.6535 802.065C587.3637 802.065 653.4958 800.8411 686.4439 786.7526 745.7698 765.1597 792.503 718.4265 814.0959 659.1006 826.7242 631.6621 829.4083 564.9903 829.4083 511 829.4083 457.0098 826.7242 390.338 814.0959 362.8995 792.503 303.5736 745.7698 256.8404 686.4439 235.2475 653.4958 221.159 587.3637 219.9351 511.6535 219.9351 435.9434 219.9351 369.8113 221.159 336.8632 235.2475 277.5373 256.8404 230.8041 303.5736 209.2112 362.8995 196.5829 390.338 193.8988 457.0098 193.8988 511 193.8988 564.9903 196.5829 631.6621 209.2112 659.1006 230.8041 718.4265 277.5373 765.1597 336.8632 786.7526 369.8113 800.8411 435.9434 802.065 511.6535 802.065ZM511.6535 802.065" fill="#ffffff"/>
<path transform="matrix(1,0,0,-1,0,1024)" d="M511.6536 802.065C587.3637 802.065 653.4958 800.8411 686.4439 786.7526 716.0423 775.9175 742.558 758.8574 764.4198 737.0765 778.1185 723.4284 790.024 707.8761 799.7119 690.7471L223.7572 690.7519C233.382 707.8836 245.2353 723.4347 258.8873 737.0765 280.7059 758.8786 307.2238 775.9521 336.8632 786.7526 369.8113 800.8411 435.9434 802.065 511.6536 802.065ZM511.6536 802.065"/>
<path transform="matrix(1,0,0,-1,0,1024)" d="M345.9329 842.0037C348.863 842.0037 351.7705 841.4911 354.5239 840.4889 361.501 837.9495 366.9971 832.4534 369.5365 825.4763 371.0514 821.1022 371.0514 814.5412 371.0514 803.606V780.9741C371.0514 770.039 371.0514 763.4779 369.5365 759.1039 366.9971 752.1268 361.501 746.6307 354.5239 744.0913 351.7705 743.0891 348.863 742.5764 345.9329 742.5764 343.0028 742.5764 340.0953 743.0891 337.3419 744.0913 330.3648 746.6307 324.8687 752.1268 322.3293 759.1039 320.8145 763.4779 320.8145 770.039 320.8145 780.9741V803.606C320.8145 814.5412 320.8145 821.1022 322.3293 825.4763 324.8687 832.4534 330.3648 837.9495 337.3419 840.4889 340.0953 841.4911 343.0028 842.0037 345.9329 842.0037ZM345.9329 842.0037" fill="#ffffff"/>
<path transform="matrix(1,0,0,-1,0,1024)" d="M677.7243 842.0037C680.6544 842.0037 683.5619 841.4911 686.3153 840.4889 693.2923 837.9495 698.7884 832.4534 701.3279 825.4763 702.8427 821.1022 702.8427 814.5412 702.8427 803.606V780.9741C702.8427 770.039 702.8427 763.4779 701.3279 759.1039 698.7884 752.1268 693.2923 746.6307 686.3153 744.0913 683.5619 743.0891 680.6544 742.5764 677.7243 742.5764 674.7942 742.5764 671.8866 743.0891 669.1332 744.0913 662.1562 746.6307 656.6601 752.1268 654.1206 759.1039 652.6058 763.4779 652.6058 770.039 652.6058 780.9741V803.606C652.6058 814.5412 652.6058 821.1022 654.1206 825.4763 656.6601 832.4534 662.1562 837.9495 669.1332 840.4889 671.8866 841.4911 674.7942 842.0037 677.7243 842.0037ZM677.7243 842.0037" fill="#ffffff"/>
<path transform="matrix(1,0,0,1,403.8071,670)" stroke-width="15" stroke-linecap="butt" stroke-miterlimit="4" stroke-linejoin="miter" fill="none" stroke="#000000" d="M216 .3509521C149.0048 47.3476 77.00475 47.23062 0 0"/>
</g>
</svg>
